<svg xmlns="http://www.w3.org/2000/svg" width="3840" height="3840"><path d="M1775,2116L1406,2135L1638,2566Z" fill="#6fadd5" stroke="#6fadd5" stroke-width="1.51"/><path d="M1406,2135L1214,2552L1638,2566Z" fill="#72aed4" stroke="#72aed4" stroke-width="1.51"/><path d="M1638,2566L2116,2490L1775,2116Z" fill="#61a5d1" stroke="#61a5d1" stroke-width="1.51"/><path d="M1406,2135L1042,2405L1214,2552Z" fill="#7bb3d7" stroke="#7bb3d7" stroke-width="1.51"/><path d="M1775,2116L1676,1683L1406,2135Z" fill="#76b3d8" stroke="#76b3d8" stroke-width="1.51"/><path d="M1406,2135L936,1949L1042,2405Z" fill="#83b8da" stroke="#83b8da" stroke-width="1.51"/><path d="M2198,2025L1676,1683L1775,2116Z" fill="#6caed6" stroke="#6caed6" stroke-width="1.51"/><path d="M2116,2490L2198,2025L1775,2116Z" fill="#60a5d1" stroke="#60a5d1" stroke-width="1.51"/><path d="M1214,2552L1395,2978L1638,2566Z" fill="#6ca8d1" stroke="#6ca8d1" stroke-width="1.51"/><path d="M1638,2566L2136,2950L2116,2490Z" fill="#559dcc" stroke="#559dcc" stroke-width="1.51"/><path d="M827,2854L1395,2978L1214,2552Z" fill="#75aad2" stroke="#75aad2" stroke-width="1.51"/><path d="M1676,1683L1205,1709L1406,2135Z" fill="#81b9db" stroke="#81b9db" stroke-width="1.51"/><path d="M1395,2978L1664,3045L1638,2566Z" fill="#63a0ce" stroke="#63a0ce" stroke-width="1.51"/><path d="M1205,1709L936,1949L1406,2135Z" fill="#87bddc" stroke="#87bddc" stroke-width="1.51"/><path d="M2198,2025L2269,1911L1676,1683Z" fill="#6aacd5" stroke="#6aacd5" stroke-width="1.51"/><path d="M2674,2138L2269,1911L2198,2025Z" fill="#5ba2cf" stroke="#5ba2cf" stroke-width="1.51"/><path d="M1664,3045L2136,2950L1638,2566Z" fill="#589bcc" stroke="#589bcc" stroke-width="1.51"/><path d="M2116,2490L2512,2405L2198,2025Z" fill="#569ecd" stroke="#569ecd" stroke-width="1.51"/><path d="M1042,2405L827,2854L1214,2552Z" fill="#7bb0d6" stroke="#7bb0d6" stroke-width="1.51"/><path d="M698,2283L718,2375L1042,2405Z" fill="#89b8db" stroke="#89b8db" stroke-width="1.51"/><path d="M1664,3045L1984,3125L2136,2950Z" fill="#5095c9" stroke="#5095c9" stroke-width="1.51"/><path d="M1552,3351L1984,3125L1664,3045Z" fill="#5695c8" stroke="#5695c8" stroke-width="1.51"/><path d="M936,1949L698,2283L1042,2405Z" fill="#89badc" stroke="#89badc" stroke-width="1.51"/><path d="M936,1949L617,1645L698,2283Z" fill="#95c1e0" stroke="#95c1e0" stroke-width="1.51"/><path d="M1205,1709L961,1667L936,1949Z" fill="#92c1df" stroke="#92c1df" stroke-width="1.51"/><path d="M1007,1515L961,1667L1205,1709Z" fill="#96c4e0" stroke="#96c4e0" stroke-width="1.51"/><path d="M1676,1683L1318,1443L1205,1709Z" fill="#8cbfdd" stroke="#8cbfdd" stroke-width="1.51"/><path d="M1744,1222L1318,1443L1676,1683Z" fill="#8bbfdd" stroke="#8bbfdd" stroke-width="1.51"/><path d="M2515,2838L2512,2405L2116,2490Z" fill="#4a97c8" stroke="#4a97c8" stroke-width="1.51"/><path d="M2269,1911L2142,1483L1676,1683Z" fill="#71b0d7" stroke="#71b0d7" stroke-width="1.51"/><path d="M2674,2138L2336,1719L2269,1911Z" fill="#5da3d0" stroke="#5da3d0" stroke-width="1.51"/><path d="M718,2375L827,2854L1042,2405Z" fill="#82b3d8" stroke="#82b3d8" stroke-width="1.51"/><path d="M1395,2978L1552,3351L1664,3045Z" fill="#609acb" stroke="#609acb" stroke-width="1.51"/><path d="M2336,1719L2142,1483L2269,1911Z" fill="#6babd4" stroke="#6babd4" stroke-width="1.51"/><path d="M1318,1443L1007,1515L1205,1709Z" fill="#95c4df" stroke="#95c4df" stroke-width="1.51"/><path d="M961,1667L617,1645L936,1949Z" fill="#99c4e2" stroke="#99c4e2" stroke-width="1.51"/><path d="M1523,3427L1552,3351L1384,3458Z" fill="#5e94c6" stroke="#5e94c6" stroke-width="1.51"/><path d="M2136,2950L2515,2838L2116,2490Z" fill="#4a95c8" stroke="#4a95c8" stroke-width="1.51"/><path d="M2340,3405L2515,2838L2136,2950Z" fill="#428cc3" stroke="#428cc3" stroke-width="1.51"/><path d="M2512,2405L2674,2138L2198,2025Z" fill="#549dcc" stroke="#549dcc" stroke-width="1.51"/><path d="M2916,2348L2674,2138L2512,2405Z" fill="#4a95c8" stroke="#4a95c8" stroke-width="1.51"/><path d="M2142,1483L1744,1222L1676,1683Z" fill="#80b9db" stroke="#80b9db" stroke-width="1.51"/><path d="M908,1085L749,1462L1007,1515Z" fill="#a5cce3" stroke="#a5cce3" stroke-width="1.51"/><path d="M1552,3351L1745,3532L1984,3125Z" fill="#5290c6" stroke="#5290c6" stroke-width="1.51"/><path d="M1984,3125L2340,3405L2136,2950Z" fill="#468dc4" stroke="#468dc4" stroke-width="1.51"/><path d="M1384,3458L1552,3351L1395,2978Z" fill="#6198ca" stroke="#6198ca" stroke-width="1.51"/><path d="M827,2854L879,3204L1395,2978Z" fill="#75a5d0" stroke="#75a5d0" stroke-width="1.51"/><path d="M616,2960L879,3204L827,2854Z" fill="#7da8d4" stroke="#7da8d4" stroke-width="1.51"/><path d="M616,2960L827,2854L718,2375Z" fill="#84b0d8" stroke="#84b0d8" stroke-width="1.51"/><path d="M879,3204L1384,3458L1395,2978Z" fill="#6b9ecc" stroke="#6b9ecc" stroke-width="1.51"/><path d="M218,2444L616,2960L718,2375Z" fill="#8bb6db" stroke="#8bb6db" stroke-width="1.51"/><path d="M749,1462L961,1667L1007,1515Z" fill="#9ec8e2" stroke="#9ec8e2" stroke-width="1.51"/><path d="M749,1462L617,1645L961,1667Z" fill="#a0c9e3" stroke="#a0c9e3" stroke-width="1.51"/><path d="M698,2283L218,2444L718,2375Z" fill="#90bbdd" stroke="#90bbdd" stroke-width="1.51"/><path d="M908,1085L1007,1515L1318,1443Z" fill="#a0cae2" stroke="#a0cae2" stroke-width="1.51"/><path d="M2142,1483L1876,1132L1744,1222Z" fill="#85bbdb" stroke="#85bbdb" stroke-width="1.51"/><path d="M1206,939L908,1085L1318,1443Z" fill="#a4cde3" stroke="#a4cde3" stroke-width="1.51"/><path d="M1926,1119L1876,1132L2142,1483Z" fill="#84badb" stroke="#84badb" stroke-width="1.51"/><path d="M1926,1119L2142,1483L2463,1401Z" fill="#7cb4d8" stroke="#7cb4d8" stroke-width="1.51"/><path d="M1523,3427L1745,3532L1552,3351Z" fill="#5991c5" stroke="#5991c5" stroke-width="1.51"/><path d="M1384,3458L1745,3532L1523,3427Z" fill="#5a91c5" stroke="#5a91c5" stroke-width="1.51"/><path d="M2463,1401L2142,1483L2336,1719Z" fill="#70add5" stroke="#70add5" stroke-width="1.51"/><path d="M2792,1771L2463,1401L2336,1719Z" fill="#66a7d1" stroke="#66a7d1" stroke-width="1.51"/><path d="M2928,2061L2792,1771L2674,2138Z" fill="#5299cb" stroke="#5299cb" stroke-width="1.51"/><path d="M2674,2138L2792,1771L2336,1719Z" fill="#5aa1ce" stroke="#5aa1ce" stroke-width="1.51"/><path d="M2880,2735L2916,2348L2512,2405Z" fill="#428fc5" stroke="#428fc5" stroke-width="1.51"/><path d="M1745,3532L2340,3405L1984,3125Z" fill="#478bc3" stroke="#478bc3" stroke-width="1.51"/><path d="M2515,2838L2880,2735L2512,2405Z" fill="#408fc4" stroke="#408fc4" stroke-width="1.51"/><path d="M2873,3185L2880,2735L2515,2838Z" fill="#3886c0" stroke="#3886c0" stroke-width="1.51"/><path d="M2916,2348L2928,2061L2674,2138Z" fill="#4b94c8" stroke="#4b94c8" stroke-width="1.51"/><path d="M100,2246L218,2444L698,2283Z" fill="#96bedf" stroke="#96bedf" stroke-width="1.51"/><path d="M1206,939L1744,1222L1478,707Z" fill="#9fc8e2" stroke="#9fc8e2" stroke-width="1.51"/><path d="M1206,939L1318,1443L1744,1222Z" fill="#9ac7e0" stroke="#9ac7e0" stroke-width="1.51"/><path d="M749,1462L271,1501L617,1645Z" fill="#a9cde5" stroke="#a9cde5" stroke-width="1.51"/><path d="M1478,707L1744,1222L1876,1132Z" fill="#95c3e0" stroke="#95c3e0" stroke-width="1.51"/><path d="M617,1645L100,2246L698,2283Z" fill="#9ac2e2" stroke="#9ac2e2" stroke-width="1.51"/><path d="M-7,2122L100,2246L617,1645Z" fill="#9fc6e4" stroke="#9fc6e4" stroke-width="1.51"/><path d="M2340,3405L2873,3185L2515,2838Z" fill="#3785bf" stroke="#3785bf" stroke-width="1.51"/><path d="M2880,2735L3233,2334L2916,2348Z" fill="#3d8ac2" stroke="#3d8ac2" stroke-width="1.51"/><path d="M582,782L271,1501L749,1462Z" fill="#b3d3e8" stroke="#b3d3e8" stroke-width="1.51"/><path d="M616,2960L427,3391L879,3204Z" fill="#7fa5d3" stroke="#7fa5d3" stroke-width="1.51"/><path d="M879,3204L873,3763L1384,3458Z" fill="#6e99c9" stroke="#6e99c9" stroke-width="1.51"/><path d="M56,2881L296,3167L616,2960Z" fill="#89aed7" stroke="#89aed7" stroke-width="1.51"/><path d="M56,2881L616,2960L218,2444Z" fill="#8db5da" stroke="#8db5da" stroke-width="1.51"/><path d="M2916,2348L3233,2334L2928,2061Z" fill="#458ec5" stroke="#458ec5" stroke-width="1.51"/><path d="M2873,3185L3100,2832L2880,2735Z" fill="#3381be" stroke="#3381be" stroke-width="1.51"/><path d="M296,3167L427,3391L616,2960Z" fill="#84a8d4" stroke="#84a8d4" stroke-width="1.51"/><path d="M1838,4052L2196,3804L1745,3532Z" fill="#4682bb" stroke="#4682bb" stroke-width="1.51"/><path d="M1948,595L1478,707L1876,1132Z" fill="#99c4e2" stroke="#99c4e2" stroke-width="1.51"/><path d="M1206,939L860,710L908,1085Z" fill="#b0d1e7" stroke="#b0d1e7" stroke-width="1.51"/><path d="M908,1085L582,782L749,1462Z" fill="#b1d2e7" stroke="#b1d2e7" stroke-width="1.51"/><path d="M1948,595L1876,1132L1926,1119Z" fill="#8fc0df" stroke="#8fc0df" stroke-width="1.51"/><path d="M2340,3405L2650,3712L2873,3185Z" fill="#317dba" stroke="#317dba" stroke-width="1.51"/><path d="M1745,3532L2196,3804L2340,3405Z" fill="#4384bd" stroke="#4384bd" stroke-width="1.51"/><path d="M1838,4052L1745,3532L1232,4049Z" fill="#5486bc" stroke="#5486bc" stroke-width="1.51"/><path d="M-213,2805L56,2881L-282,2683Z" fill="#95b9dd" stroke="#95b9dd" stroke-width="1.51"/><path d="M49,1660L-7,2122L617,1645Z" fill="#a6cbe6" stroke="#a6cbe6" stroke-width="1.51"/><path d="M2463,1401L2627,948L1926,1119Z" fill="#7eb4d8" stroke="#7eb4d8" stroke-width="1.51"/><path d="M2792,1771L3027,1531L2463,1401Z" fill="#65a3cf" stroke="#65a3cf" stroke-width="1.51"/><path d="M3139,1570L3027,1531L2792,1771Z" fill="#5f9bcc" stroke="#5f9bcc" stroke-width="1.51"/><path d="M3139,1570L2792,1771L3292,1933Z" fill="#5797ca" stroke="#5797ca" stroke-width="1.51"/><path d="M428,3487L873,3763L879,3204Z" fill="#789ccd" stroke="#789ccd" stroke-width="1.51"/><path d="M3100,2832L3233,2334L2880,2735Z" fill="#3785c0" stroke="#3785c0" stroke-width="1.51"/><path d="M56,2881L218,2444L-282,2683Z" fill="#94badd" stroke="#94badd" stroke-width="1.51"/><path d="M342,3563L428,3487L427,3391Z" fill="#80a1cf" stroke="#80a1cf" stroke-width="1.51"/><path d="M427,3391L428,3487L879,3204Z" fill="#7ea1d0" stroke="#7ea1d0" stroke-width="1.51"/><path d="M342,3563L427,3391L296,3167Z" fill="#83a4d2" stroke="#83a4d2" stroke-width="1.51"/><path d="M271,1501L49,1660L617,1645Z" fill="#abcee6" stroke="#abcee6" stroke-width="1.51"/><path d="M2878,1034L2627,948L2463,1401Z" fill="#77add4" stroke="#77add4" stroke-width="1.51"/><path d="M3027,1531L2878,1034L2463,1401Z" fill="#6ea7d1" stroke="#6ea7d1" stroke-width="1.51"/><path d="M3292,1933L2792,1771L2928,2061Z" fill="#5096c9" stroke="#5096c9" stroke-width="1.51"/><path d="M3233,2334L3292,1933L2928,2061Z" fill="#478ec5" stroke="#478ec5" stroke-width="1.51"/><path d="M2425,686L1948,595L1926,1119Z" fill="#90bdde" stroke="#90bdde" stroke-width="1.51"/><path d="M2196,3804L2650,3712L2340,3405Z" fill="#377cb9" stroke="#377cb9" stroke-width="1.51"/><path d="M2873,3185L3076,3337L3100,2832Z" fill="#2d7aba" stroke="#2d7aba" stroke-width="1.51"/><path d="M1232,4049L1745,3532L1384,3458Z" fill="#5c8dc1" stroke="#5c8dc1" stroke-width="1.51"/><path d="M2196,3804L2526,4043L2650,3712Z" fill="#3376b4" stroke="#3376b4" stroke-width="1.51"/><path d="M1202,349L860,710L1206,939Z" fill="#b5d3e8" stroke="#b5d3e8" stroke-width="1.51"/><path d="M-57,1432L-108,1739L49,1660Z" fill="#b1d2e8" stroke="#b1d2e8" stroke-width="1.51"/><path d="M1202,349L1206,939L1478,707Z" fill="#aed0e6" stroke="#aed0e6" stroke-width="1.51"/><path d="M374,3861L601,4009L873,3763Z" fill="#7794c6" stroke="#7794c6" stroke-width="1.51"/><path d="M-204,3413L342,3563L296,3167Z" fill="#86a6d3" stroke="#86a6d3" stroke-width="1.51"/><path d="M873,3763L1232,4049L1384,3458Z" fill="#6790c3" stroke="#6790c3" stroke-width="1.51"/><path d="M768,4107L1232,4049L873,3763Z" fill="#6c8dc0" stroke="#6c8dc0" stroke-width="1.51"/><path d="M2903,3687L3076,3337L2873,3185Z" fill="#2975b6" stroke="#2975b6" stroke-width="1.51"/><path d="M3639,2599L3460,1915L3233,2334Z" fill="#3d83bd" stroke="#3d83bd" stroke-width="1.51"/><path d="M-282,2683L218,2444L100,2246Z" fill="#98bfe0" stroke="#98bfe0" stroke-width="1.51"/><path d="M49,1660L-108,1739L-7,2122Z" fill="#a9cde7" stroke="#a9cde7" stroke-width="1.51"/><path d="M-57,1432L49,1660L271,1501Z" fill="#b1d2e8" stroke="#b1d2e8" stroke-width="1.51"/><path d="M2627,948L2425,686L1926,1119Z" fill="#86b7da" stroke="#86b7da" stroke-width="1.51"/><path d="M3293,1258L2878,1034L3027,1531Z" fill="#6ca1ce" stroke="#6ca1ce" stroke-width="1.51"/><path d="M2740,766L2425,686L2627,948Z" fill="#83b3d8" stroke="#83b3d8" stroke-width="1.51"/><path d="M860,710L582,782L908,1085Z" fill="#b8d5ea" stroke="#b8d5ea" stroke-width="1.51"/><path d="M1856,210L1826,479L1954,177Z" fill="#a1c9e5" stroke="#a1c9e5" stroke-width="1.51"/><path d="M1948,595L1826,479L1478,707Z" fill="#a0c8e4" stroke="#a0c8e4" stroke-width="1.51"/><path d="M76,827L-57,1432L271,1501Z" fill="#bbd8eb" stroke="#bbd8eb" stroke-width="1.51"/><path d="M56,2881L-204,3413L296,3167Z" fill="#8cadd7" stroke="#8cadd7" stroke-width="1.51"/><path d="M-282,2683L100,2246L-450,2356Z" fill="#9dc3e1" stroke="#9dc3e1" stroke-width="1.51"/><path d="M2931,4204L2903,3687L2650,3712Z" fill="#276daf" stroke="#276daf" stroke-width="1.51"/><path d="M2650,3712L2903,3687L2873,3185Z" fill="#2b75b6" stroke="#2b75b6" stroke-width="1.51"/><path d="M3292,1933L3460,1915L3139,1570Z" fill="#5190c6" stroke="#5190c6" stroke-width="1.51"/><path d="M3139,1570L3293,1258L3027,1531Z" fill="#639bcb" stroke="#639bcb" stroke-width="1.51"/><path d="M3233,2334L3460,1915L3292,1933Z" fill="#468ac3" stroke="#468ac3" stroke-width="1.51"/><path d="M3538,2808L3233,2334L3100,2832Z" fill="#317fbc" stroke="#317fbc" stroke-width="1.51"/><path d="M1954,177L1826,479L1948,595Z" fill="#9ec6e4" stroke="#9ec6e4" stroke-width="1.51"/><path d="M2878,1034L2740,766L2627,948Z" fill="#7dadd5" stroke="#7dadd5" stroke-width="1.51"/><path d="M3126,459L2740,766L2878,1034Z" fill="#80abd5" stroke="#80abd5" stroke-width="1.51"/><path d="M-417,2213L-7,2122L-108,1739Z" fill="#a7cbe6" stroke="#a7cbe6" stroke-width="1.51"/><path d="M-450,2356L100,2246L-7,2122Z" fill="#a0c5e3" stroke="#a0c5e3" stroke-width="1.51"/><path d="M2288,4186L2526,4043L2196,3804Z" fill="#3674b1" stroke="#3674b1" stroke-width="1.51"/><path d="M374,3861L428,3487L342,3563Z" fill="#7f9dcc" stroke="#7f9dcc" stroke-width="1.51"/><path d="M374,3861L873,3763L428,3487Z" fill="#7b99ca" stroke="#7b99ca" stroke-width="1.51"/><path d="M-135,3775L374,3861L342,3563Z" fill="#829ccc" stroke="#829ccc" stroke-width="1.51"/><path d="M-204,3413L56,2881L-213,2805Z" fill="#91b2d9" stroke="#91b2d9" stroke-width="1.51"/><path d="M601,4009L768,4107L873,3763Z" fill="#7290c2" stroke="#7290c2" stroke-width="1.51"/><path d="M2192,4245L2196,3804L1838,4052Z" fill="#3f78b3" stroke="#3f78b3" stroke-width="1.51"/><path d="M2192,4245L2288,4186L2196,3804Z" fill="#3a74b0" stroke="#3a74b0" stroke-width="1.51"/><path d="M3460,1915L3293,1258L3139,1570Z" fill="#5b94c8" stroke="#5b94c8" stroke-width="1.51"/><path d="M1826,479L1202,349L1478,707Z" fill="#abcee6" stroke="#abcee6" stroke-width="1.51"/><path d="M860,710L591,479L582,782Z" fill="#c1d8ed" stroke="#c1d8ed" stroke-width="1.51"/><path d="M2192,4245L1838,4052L1631,4482Z" fill="#4476ad" stroke="#4476ad" stroke-width="1.51"/><path d="M3076,3337L3538,2808L3100,2832Z" fill="#2a78b9" stroke="#2a78b9" stroke-width="1.51"/><path d="M3634,3406L3538,2808L3076,3337Z" fill="#226fb3" stroke="#226fb3" stroke-width="1.51"/><path d="M-628,1611L-417,2213L-108,1739Z" fill="#afd1e9" stroke="#afd1e9" stroke-width="1.51"/><path d="M2288,4186L2473,4300L2526,4043Z" fill="#316eaa" stroke="#316eaa" stroke-width="1.51"/><path d="M1631,4482L1838,4052L1232,4049Z" fill="#537eb2" stroke="#537eb2" stroke-width="1.51"/><path d="M-417,2213L-450,2356L-7,2122Z" fill="#a4c8e4" stroke="#a4c8e4" stroke-width="1.51"/><path d="M3538,2808L3639,2599L3233,2334Z" fill="#327cb9" stroke="#327cb9" stroke-width="1.51"/><path d="M3668,998L3373,966L3293,1258Z" fill="#6e99ca" stroke="#6e99ca" stroke-width="1.51"/><path d="M2903,3687L3277,3542L3076,3337Z" fill="#246fb2" stroke="#246fb2" stroke-width="1.51"/><path d="M4205,2834L3896,2465L3639,2599Z" fill="#2b70b1" stroke="#2b70b1" stroke-width="1.51"/><path d="M3183,4141L3277,3542L2903,3687Z" fill="#1f68ad" stroke="#1f68ad" stroke-width="1.51"/><path d="M786,339L591,479L860,710Z" fill="#c2daed" stroke="#c2daed" stroke-width="1.51"/><path d="M582,782L76,827L271,1501Z" fill="#bed8eb" stroke="#bed8eb" stroke-width="1.51"/><path d="M-57,1432L-628,1611L-108,1739Z" fill="#b6d5ea" stroke="#b6d5ea" stroke-width="1.51"/><path d="M591,479L279,677L582,782Z" fill="#c6dbef" stroke="#c6dbef" stroke-width="1.51"/><path d="M1826,479L1856,210L1202,349Z" fill="#a9cde6" stroke="#a9cde6" stroke-width="1.51"/><path d="M1954,177L1948,595L2425,686Z" fill="#98c1e1" stroke="#98c1e1" stroke-width="1.51"/><path d="M-532,3053L-213,2805L-282,2683Z" fill="#98b9dd" stroke="#98b9dd" stroke-width="1.51"/><path d="M-532,3053L-204,3413L-213,2805Z" fill="#93b2da" stroke="#93b2da" stroke-width="1.51"/><path d="M279,677L76,827L582,782Z" fill="#c5dbee" stroke="#c5dbee" stroke-width="1.51"/><path d="M75,139L-233,409L279,677Z" fill="#d3e3f3" stroke="#d3e3f3" stroke-width="1.51"/><path d="M1202,349L786,339L860,710Z" fill="#bdd8eb" stroke="#bdd8eb" stroke-width="1.51"/><path d="M678,299L786,339L988,-100Z" fill="#c6dcef" stroke="#c6dcef" stroke-width="1.51"/><path d="M988,-100L786,339L1202,349Z" fill="#c1daed" stroke="#c1daed" stroke-width="1.51"/><path d="M2537,136L1954,177L2425,686Z" fill="#96bfe0" stroke="#96bfe0" stroke-width="1.51"/><path d="M1371,4539L1631,4482L1232,4049Z" fill="#577cad" stroke="#577cad" stroke-width="1.51"/><path d="M2526,4043L2931,4204L2650,3712Z" fill="#296cad" stroke="#296cad" stroke-width="1.51"/><path d="M2192,4245L2473,4300L2288,4186Z" fill="#356ea8" stroke="#356ea8" stroke-width="1.51"/><path d="M1631,4482L2473,4300L2192,4245Z" fill="#3c6fa7" stroke="#3c6fa7" stroke-width="1.51"/><path d="M-233,409L-7,839L76,827Z" fill="#cee1f2" stroke="#cee1f2" stroke-width="1.51"/><path d="M76,827L-7,839L-57,1432Z" fill="#c3dced" stroke="#c3dced" stroke-width="1.51"/><path d="M-553,857L-7,839L-233,409Z" fill="#d2e3f2" stroke="#d2e3f2" stroke-width="1.51"/><path d="M768,4107L1011,4422L1232,4049Z" fill="#6786b7" stroke="#6786b7" stroke-width="1.51"/><path d="M547,4566L1011,4422L768,4107Z" fill="#6c85b3" stroke="#6c85b3" stroke-width="1.51"/><path d="M547,4566L768,4107L601,4009Z" fill="#7289b9" stroke="#7289b9" stroke-width="1.51"/><path d="M547,4566L601,4009L126,4535Z" fill="#7488b5" stroke="#7488b5" stroke-width="1.51"/><path d="M786,339L678,299L591,479Z" fill="#c7dcef" stroke="#c7dcef" stroke-width="1.51"/><path d="M988,-100L1202,349L1398,-363Z" fill="#bfdaec" stroke="#bfdaec" stroke-width="1.51"/><path d="M3293,1258L3373,966L2878,1034Z" fill="#70a0ce" stroke="#70a0ce" stroke-width="1.51"/><path d="M2876,245L2537,136L2425,686Z" fill="#8eb8dc" stroke="#8eb8dc" stroke-width="1.51"/><path d="M3808,1291L3293,1258L3460,1915Z" fill="#5d91c4" stroke="#5d91c4" stroke-width="1.51"/><path d="M3211,4425L2738,4274L2473,4300Z" fill="#25619f" stroke="#25619f" stroke-width="1.51"/><path d="M1011,4422L1371,4539L1232,4049Z" fill="#5f80af" stroke="#5f80af" stroke-width="1.51"/><path d="M-450,2356L-532,3053L-282,2683Z" fill="#9cbfdf" stroke="#9cbfdf" stroke-width="1.51"/><path d="M3639,2599L3839,1967L3460,1915Z" fill="#3f81bb" stroke="#3f81bb" stroke-width="1.51"/><path d="M2473,4300L2738,4274L2526,4043Z" fill="#2c6aa7" stroke="#2c6aa7" stroke-width="1.51"/><path d="M3211,4425L2473,4300L1631,4482Z" fill="#3067a1" stroke="#3067a1" stroke-width="1.51"/><path d="M-204,3413L-135,3775L342,3563Z" fill="#87a2cf" stroke="#87a2cf" stroke-width="1.51"/><path d="M-435,3719L-135,3775L-204,3413Z" fill="#8ba4d0" stroke="#8ba4d0" stroke-width="1.51"/><path d="M3639,2599L3896,2465L3839,1967Z" fill="#3779b6" stroke="#3779b6" stroke-width="1.51"/><path d="M4205,2834L3639,2599L3538,2808Z" fill="#2a71b1" stroke="#2a71b1" stroke-width="1.51"/><path d="M3277,3542L3634,3406L3076,3337Z" fill="#1e6bb1" stroke="#1e6bb1" stroke-width="1.51"/><path d="M3740,3473L3634,3406L3277,3542Z" fill="#1a65ab" stroke="#1a65ab" stroke-width="1.51"/><path d="M4028,1715L3808,1291L3460,1915Z" fill="#5388be" stroke="#5388be" stroke-width="1.51"/><path d="M3896,2465L3887,1964L3839,1967Z" fill="#3e7bb7" stroke="#3e7bb7" stroke-width="1.51"/><path d="M2738,4274L2931,4204L2526,4043Z" fill="#2767a6" stroke="#2767a6" stroke-width="1.51"/><path d="M-417,2213L-628,1611L-450,2356Z" fill="#accee8" stroke="#accee8" stroke-width="1.51"/><path d="M-450,2356L-698,1508L-532,3053Z" fill="#a7c9e5" stroke="#a7c9e5" stroke-width="1.51"/><path d="M-698,1508L-628,1611L-57,1432Z" fill="#bdd9ec" stroke="#bdd9ec" stroke-width="1.51"/><path d="M-532,3053L-483,3364L-204,3413Z" fill="#93aed8" stroke="#93aed8" stroke-width="1.51"/><path d="M2876,245L2425,686L2740,766Z" fill="#89b4da" stroke="#89b4da" stroke-width="1.51"/><path d="M1954,177L1981,-56L1856,210Z" fill="#a3cae6" stroke="#a3cae6" stroke-width="1.51"/><path d="M2537,136L1981,-56L1954,177Z" fill="#9fc5e3" stroke="#9fc5e3" stroke-width="1.51"/><path d="M3373,966L3126,459L2878,1034Z" fill="#7aa5d2" stroke="#7aa5d2" stroke-width="1.51"/><path d="M3221,372L3126,459L3671,576Z" fill="#81a3d1" stroke="#81a3d1" stroke-width="1.51"/><path d="M3211,4425L3183,4141L2931,4204Z" fill="#1c5c9e" stroke="#1c5c9e" stroke-width="1.51"/><path d="M2931,4204L3183,4141L2903,3687Z" fill="#2065a9" stroke="#2065a9" stroke-width="1.51"/><path d="M1845,-475L1656,-335L1981,-56Z" fill="#afd1e9" stroke="#afd1e9" stroke-width="1.51"/><path d="M3126,459L2876,245L2740,766Z" fill="#87aed7" stroke="#87aed7" stroke-width="1.51"/><path d="M4028,1715L3460,1915L3839,1967Z" fill="#4983bc" stroke="#4983bc" stroke-width="1.51"/><path d="M-628,1611L-698,1508L-450,2356Z" fill="#b4d4eb" stroke="#b4d4eb" stroke-width="1.51"/><path d="M-553,857L-698,1508L-57,1432Z" fill="#c5deee" stroke="#c5deee" stroke-width="1.51"/><path d="M3736,4036L3740,3473L3277,3542Z" fill="#165fa7" stroke="#165fa7" stroke-width="1.51"/><path d="M4143,3357L4205,2834L3538,2808Z" fill="#2067ab" stroke="#2067ab" stroke-width="1.51"/><path d="M3808,1291L3668,998L3293,1258Z" fill="#6894c6" stroke="#6894c6" stroke-width="1.51"/><path d="M-483,3364L-435,3719L-204,3413Z" fill="#8fa9d3" stroke="#8fa9d3" stroke-width="1.51"/><path d="M126,4535L601,4009L374,3861Z" fill="#798fbe" stroke="#798fbe" stroke-width="1.51"/><path d="M-427,4212L-435,3719L-637,4540Z" fill="#8998c3" stroke="#8998c3" stroke-width="1.51"/><path d="M-233,409L76,827L279,677Z" fill="#cee0f2" stroke="#cee0f2" stroke-width="1.51"/><path d="M1398,-363L1202,349L1856,210Z" fill="#b3d3e9" stroke="#b3d3e9" stroke-width="1.51"/><path d="M1011,4422L547,4566L1371,4539Z" fill="#647eab" stroke="#647eab" stroke-width="1.51"/><path d="M-258,4040L374,3861L-135,3775Z" fill="#849aca" stroke="#849aca" stroke-width="1.51"/><path d="M3887,1964L4028,1715L3839,1967Z" fill="#477fba" stroke="#477fba" stroke-width="1.51"/><path d="M3808,1291L4007,1133L3668,998Z" fill="#678fc1" stroke="#678fc1" stroke-width="1.51"/><path d="M4487,1788L4028,1715L3887,1964Z" fill="#487ab2" stroke="#487ab2" stroke-width="1.51"/><path d="M4099,1506L4487,1788L4292,1433Z" fill="#517aae" stroke="#517aae" stroke-width="1.51"/><path d="M3671,576L3126,459L3373,966Z" fill="#7ba0cf" stroke="#7ba0cf" stroke-width="1.51"/><path d="M3126,459L3221,372L2876,245Z" fill="#87abd6" stroke="#87abd6" stroke-width="1.51"/><path d="M-435,3719L-258,4040L-135,3775Z" fill="#899ecc" stroke="#899ecc" stroke-width="1.51"/><path d="M-7,839L-553,857L-57,1432Z" fill="#c6deee" stroke="#c6deee" stroke-width="1.51"/><path d="M279,677L591,479L75,139Z" fill="#cddff2" stroke="#cddff2" stroke-width="1.51"/><path d="M4028,1715L4099,1506L3808,1291Z" fill="#5885bb" stroke="#5885bb" stroke-width="1.51"/><path d="M3668,998L3671,576L3373,966Z" fill="#7399ca" stroke="#7399ca" stroke-width="1.51"/><path d="M4331,2386L3887,1964L3896,2465Z" fill="#3874b1" stroke="#3874b1" stroke-width="1.51"/><path d="M75,139L591,479L678,299Z" fill="#cedff2" stroke="#cedff2" stroke-width="1.51"/><path d="M1981,-56L1656,-335L1856,210Z" fill="#aacee7" stroke="#aacee7" stroke-width="1.51"/><path d="M2615,-240L1981,-56L2537,136Z" fill="#9bc2e1" stroke="#9bc2e1" stroke-width="1.51"/><path d="M2615,-240L2537,136L2876,245Z" fill="#93badd" stroke="#93badd" stroke-width="1.51"/><path d="M458,-166L75,139L678,299Z" fill="#d2e3f3" stroke="#d2e3f3" stroke-width="1.51"/><path d="M458,-166L678,299L988,-100Z" fill="#cce0f1" stroke="#cce0f1" stroke-width="1.51"/><path d="M4143,3357L3538,2808L3634,3406Z" fill="#1c67ac" stroke="#1c67ac" stroke-width="1.51"/><path d="M3740,3473L4143,3357L3634,3406Z" fill="#1660a7" stroke="#1660a7" stroke-width="1.51"/><path d="M3183,4141L3736,4036L3277,3542Z" fill="#155ea6" stroke="#155ea6" stroke-width="1.51"/><path d="M2738,4274L3211,4425L2931,4204Z" fill="#215f9f" stroke="#215f9f" stroke-width="1.51"/><path d="M1371,4539L3211,4425L1631,4482Z" fill="#3c6ca2" stroke="#3c6ca2" stroke-width="1.51"/><path d="M-258,4040L126,4535L374,3861Z" fill="#7e92c0" stroke="#7e92c0" stroke-width="1.51"/><path d="M4099,1506L4007,1133L3808,1291Z" fill="#5f88bc" stroke="#5f88bc" stroke-width="1.51"/><path d="M1656,-335L1398,-363L1856,210Z" fill="#b2d3e9" stroke="#b2d3e9" stroke-width="1.51"/><path d="M3900,674L3671,576L3668,998Z" fill="#7596c7" stroke="#7596c7" stroke-width="1.51"/><path d="M834,-424L458,-166L988,-100Z" fill="#cfe2f2" stroke="#cfe2f2" stroke-width="1.51"/><path d="M4205,2834L4331,2386L3896,2465Z" fill="#2c6ca9" stroke="#2c6ca9" stroke-width="1.51"/><path d="M4520,1073L3900,674L4007,1133Z" fill="#6988ba" stroke="#6988ba" stroke-width="1.51"/><path d="M2986,-243L2876,245L3221,372Z" fill="#8cafd8" stroke="#8cafd8" stroke-width="1.51"/><path d="M2986,-243L2615,-240L2876,245Z" fill="#93b7dc" stroke="#93b7dc" stroke-width="1.51"/><path d="M1656,-335L1419,-636L1398,-363Z" fill="#bdd9ec" stroke="#bdd9ec" stroke-width="1.51"/><path d="M3556,4398L3736,4036L3183,4141Z" fill="#13559a" stroke="#13559a" stroke-width="1.51"/><path d="M4043,3810L4143,3357L3740,3473Z" fill="#1259a1" stroke="#1259a1" stroke-width="1.51"/><path d="M4205,2834L4432,2981L4331,2386Z" fill="#2763a0" stroke="#2763a0" stroke-width="1.51"/><path d="M-258,4040L-319,4564L126,4535Z" fill="#7f8eb8" stroke="#7f8eb8" stroke-width="1.51"/><path d="M-435,3719L-427,4212L-258,4040Z" fill="#899bc9" stroke="#899bc9" stroke-width="1.51"/><path d="M-637,4540L-435,3719L-483,3364Z" fill="#8ea0cd" stroke="#8ea0cd" stroke-width="1.51"/><path d="M-637,4540L-483,3364L-532,3053Z" fill="#91a6d1" stroke="#91a6d1" stroke-width="1.51"/><path d="M1398,-363L834,-424L988,-100Z" fill="#c7dfef" stroke="#c7dfef" stroke-width="1.51"/><path d="M2017,-548L1845,-475L1981,-56Z" fill="#accee8" stroke="#accee8" stroke-width="1.51"/><path d="M4568,3603L4269,3208L4143,3357Z" fill="#155497" stroke="#155497" stroke-width="1.51"/><path d="M4143,3357L4269,3208L4205,2834Z" fill="#1c5ca0" stroke="#1c5ca0" stroke-width="1.51"/><path d="M3493,-24L2986,-243L3221,372Z" fill="#8aabd6" stroke="#8aabd6" stroke-width="1.51"/><path d="M4007,1133L3900,674L3668,998Z" fill="#6d91c3" stroke="#6d91c3" stroke-width="1.51"/><path d="M4292,1433L4007,1133L4099,1506Z" fill="#5b83b6" stroke="#5b83b6" stroke-width="1.51"/><path d="M458,-166L20,-35L75,139Z" fill="#d8e6f5" stroke="#d8e6f5" stroke-width="1.51"/><path d="M75,139L-198,113L-233,409Z" fill="#d9e7f5" stroke="#d9e7f5" stroke-width="1.51"/><path d="M-233,409L-703,425L-553,857Z" fill="#dae8f6" stroke="#dae8f6" stroke-width="1.51"/><path d="M4487,1788L4099,1506L4028,1715Z" fill="#4e7bb0" stroke="#4e7bb0" stroke-width="1.51"/><path d="M20,-35L-198,113L75,139Z" fill="#dae8f6" stroke="#dae8f6" stroke-width="1.51"/><path d="M1419,-636L834,-424L1398,-363Z" fill="#c7dfef" stroke="#c7dfef" stroke-width="1.51"/><path d="M98,-658L-93,-82L20,-35Z" fill="#dfecf8" stroke="#dfecf8" stroke-width="1.51"/><path d="M3736,4036L4043,3810L3740,3473Z" fill="#0f57a1" stroke="#0f57a1" stroke-width="1.51"/><path d="M3211,4425L3556,4398L3183,4141Z" fill="#165599" stroke="#165599" stroke-width="1.51"/><path d="M3985,4050L4043,3810L3736,4036Z" fill="#08519b" stroke="#08519b" stroke-width="1.51"/><path d="M1845,-475L1419,-636L1656,-335Z" fill="#b8d7eb" stroke="#b8d7eb" stroke-width="1.51"/><path d="M2615,-240L2017,-548L1981,-56Z" fill="#a4c8e4" stroke="#a4c8e4" stroke-width="1.51"/><path d="M2615,-240L2445,-663L2017,-548Z" fill="#a4c7e4" stroke="#a4c7e4" stroke-width="1.51"/><path d="M3820,333L3221,372L3671,576Z" fill="#7f9ece" stroke="#7f9ece" stroke-width="1.51"/><path d="M4331,2386L4487,1788L3887,1964Z" fill="#3e73ac" stroke="#3e73ac" stroke-width="1.51"/><path d="M4269,3208L4432,2981L4205,2834Z" fill="#1f5d9e" stroke="#1f5d9e" stroke-width="1.51"/><path d="M4568,3603L4432,2981L4269,3208Z" fill="#165496" stroke="#165496" stroke-width="1.51"/><path d="M98,-658L20,-35L458,-166Z" fill="#ddeaf7" stroke="#ddeaf7" stroke-width="1.51"/><path d="M20,-35L-93,-82L-198,113Z" fill="#ddeaf7" stroke="#ddeaf7" stroke-width="1.51"/><path d="M4197,376L3820,333L3900,674Z" fill="#7993c4" stroke="#7993c4" stroke-width="1.51"/><path d="M4583,2134L4487,1788L4331,2386Z" fill="#3b6ca3" stroke="#3b6ca3" stroke-width="1.51"/><path d="M2017,-548L1419,-636L1845,-475Z" fill="#b6d5eb" stroke="#b6d5eb" stroke-width="1.51"/><path d="M4043,3810L4568,3603L4143,3357Z" fill="#115197" stroke="#115197" stroke-width="1.51"/><path d="M3556,4398L3985,4050L3736,4036Z" fill="#0d4f97" stroke="#0d4f97" stroke-width="1.51"/><path d="M-427,4212L-319,4564L-258,4040Z" fill="#8493be" stroke="#8493be" stroke-width="1.51"/><path d="M126,4535L-319,4564L547,4566Z" fill="#7787b0" stroke="#7787b0" stroke-width="1.51"/><path d="M834,-424L494,-445L458,-166Z" fill="#d6e6f5" stroke="#d6e6f5" stroke-width="1.51"/><path d="M98,-658L494,-445L834,-424Z" fill="#dce9f6" stroke="#dce9f6" stroke-width="1.51"/><path d="M3900,674L3820,333L3671,576Z" fill="#7a96c8" stroke="#7a96c8" stroke-width="1.51"/><path d="M4520,1073L4007,1133L4292,1433Z" fill="#5f82b2" stroke="#5f82b2" stroke-width="1.51"/><path d="M-658,127L-703,425L-233,409Z" fill="#dfebf7" stroke="#dfebf7" stroke-width="1.51"/><path d="M-553,857L-703,425L-698,1508Z" fill="#d2e5f3" stroke="#d2e5f3" stroke-width="1.51"/><path d="M-658,127L-233,409L-198,113Z" fill="#deeaf7" stroke="#deeaf7" stroke-width="1.51"/><path d="M4432,2981L4583,2134L4331,2386Z" fill="#2d659e" stroke="#2d659e" stroke-width="1.51"/><path d="M3820,333L3493,-24L3221,372Z" fill="#83a1d0" stroke="#83a1d0" stroke-width="1.51"/><path d="M2720,-659L2445,-663L2615,-240Z" fill="#a0c2e1" stroke="#a0c2e1" stroke-width="1.51"/><path d="M2017,-548L2445,-663L1419,-636Z" fill="#b1d1e9" stroke="#b1d1e9" stroke-width="1.51"/><path d="M2720,-659L2615,-240L2986,-243Z" fill="#9abcde" stroke="#9abcde" stroke-width="1.51"/><path d="M3876,-2L3387,-232L3493,-24Z" fill="#89a3d0" stroke="#89a3d0" stroke-width="1.51"/><path d="M3493,-24L3387,-232L2986,-243Z" fill="#8eacd6" stroke="#8eacd6" stroke-width="1.51"/><path d="M-511,-180L-198,113L-93,-82Z" fill="#e0ecf7" stroke="#e0ecf7" stroke-width="1.51"/><path d="M-511,-180L-658,127L-198,113Z" fill="#e3eef9" stroke="#e3eef9" stroke-width="1.51"/><path d="M-427,4212L-637,4540L-319,4564Z" fill="#8490b8" stroke="#8490b8" stroke-width="1.51"/><path d="M-698,1508L-637,4540L-532,3053Z" fill="#9bb8dc" stroke="#9bb8dc" stroke-width="1.51"/><path d="M3820,333L3876,-2L3493,-24Z" fill="#839dcc" stroke="#839dcc" stroke-width="1.51"/><path d="M4487,1788L4520,1073L4292,1433Z" fill="#5579aa" stroke="#5579aa" stroke-width="1.51"/><path d="M4583,2134L4520,1073L4487,1788Z" fill="#4b73a4" stroke="#4b73a4" stroke-width="1.51"/><path d="M3114,-609L2720,-659L2986,-243Z" fill="#9ab9dd" stroke="#9ab9dd" stroke-width="1.51"/><path d="M4504,440L4197,376L3900,674Z" fill="#768cbb" stroke="#768cbb" stroke-width="1.51"/><path d="M4442,4216L4043,3810L3985,4050Z" fill="#094990" stroke="#094990" stroke-width="1.51"/><path d="M4442,4216L4568,3603L4043,3810Z" fill="#0a488d" stroke="#0a488d" stroke-width="1.51"/><path d="M4432,2981L4568,3603L4583,2134Z" fill="#215a97" stroke="#215a97" stroke-width="1.51"/><path d="M4197,376L3876,-2L3820,333Z" fill="#7e96c6" stroke="#7e96c6" stroke-width="1.51"/><path d="M3387,-232L3114,-609L2986,-243Z" fill="#93b1d9" stroke="#93b1d9" stroke-width="1.51"/><path d="M-534,-457L-511,-180L-93,-82Z" fill="#e6f0fa" stroke="#e6f0fa" stroke-width="1.51"/><path d="M4202,4443L4225,4279L3985,4050Z" fill="#094488" stroke="#094488" stroke-width="1.51"/><path d="M3669,-720L3114,-609L3387,-232Z" fill="#93add6" stroke="#93add6" stroke-width="1.51"/><path d="M494,-445L98,-658L458,-166Z" fill="#dce9f7" stroke="#dce9f7" stroke-width="1.51"/><path d="M1419,-636L98,-658L834,-424Z" fill="#d5e6f4" stroke="#d5e6f4" stroke-width="1.51"/><path d="M2445,-663L98,-658L1419,-636Z" fill="#c7dfef" stroke="#c7dfef" stroke-width="1.51"/><path d="M3556,4398L4202,4443L3985,4050Z" fill="#09488f" stroke="#09488f" stroke-width="1.51"/><path d="M4225,4279L4442,4216L3985,4050Z" fill="#094488" stroke="#094488" stroke-width="1.51"/><path d="M3211,4425L4202,4443L3556,4398Z" fill="#0f4b8f" stroke="#0f4b8f" stroke-width="1.51"/><path d="M1371,4539L4202,4443L3211,4425Z" fill="#205b99" stroke="#205b99" stroke-width="1.51"/><path d="M4202,4443L4442,4216L4225,4279Z" fill="#093e81" stroke="#093e81" stroke-width="1.51"/><path d="M3876,-2L3669,-720L3387,-232Z" fill="#8ca4d0" stroke="#8ca4d0" stroke-width="1.51"/><path d="M4197,376L4365,-135L3876,-2Z" fill="#7e92c0" stroke="#7e92c0" stroke-width="1.51"/><path d="M4520,1073L4504,440L3900,674Z" fill="#6e86b5" stroke="#6e86b5" stroke-width="1.51"/><path d="M4515,64L4504,440L4520,1073Z" fill="#7183b0" stroke="#7183b0" stroke-width="1.51"/><path d="M98,-658L-214,-666L-93,-82Z" fill="#e5eff9" stroke="#e5eff9" stroke-width="1.51"/><path d="M3669,-720L-214,-666L98,-658Z" fill="#cce2f0" stroke="#cce2f0" stroke-width="1.51"/><path d="M-511,-180L-534,-457L-658,127Z" fill="#e9f1fa" stroke="#e9f1fa" stroke-width="1.51"/><path d="M-214,-666L-534,-457L-93,-82Z" fill="#e7f0fa" stroke="#e7f0fa" stroke-width="1.51"/><path d="M2445,-663L3669,-720L98,-658Z" fill="#b0d0e8" stroke="#b0d0e8" stroke-width="1.51"/><path d="M2720,-659L3669,-720L2445,-663Z" fill="#9dbade" stroke="#9dbade" stroke-width="1.51"/><path d="M3114,-609L3669,-720L2720,-659Z" fill="#99b4db" stroke="#99b4db" stroke-width="1.51"/><path d="M4170,-437L3669,-720L3876,-2Z" fill="#8b9ecb" stroke="#8b9ecb" stroke-width="1.51"/><path d="M4504,440L4515,64L4197,376Z" fill="#7689b4" stroke="#7689b4" stroke-width="1.51"/><path d="M4583,2134L4515,64L4520,1073Z" fill="#607ca9" stroke="#607ca9" stroke-width="1.51"/><path d="M4515,64L4365,-135L4197,376Z" fill="#7b8cb8" stroke="#7b8cb8" stroke-width="1.51"/><path d="M4373,-583L4170,-437L4365,-135Z" fill="#8593bd" stroke="#8593bd" stroke-width="1.51"/><path d="M4365,-135L4170,-437L3876,-2Z" fill="#8495c2" stroke="#8495c2" stroke-width="1.51"/><path d="M4515,64L4373,-583L4365,-135Z" fill="#808eb7" stroke="#808eb7" stroke-width="1.51"/><path d="M4170,-437L4373,-583L3669,-720Z" fill="#8c9bc7" stroke="#8c9bc7" stroke-width="1.51"/></svg>